<?xml version="1.0" encoding="UTF-8" standalone="no" ?>
<svg xmlns="http://www.w3.org/2000/svg" width="1080" height="1080" viewBox="10 10 80 80">
  <rect width="100%" height="100%" fill="transparent"></rect>
  <path d="M 89.1269531 20.0083008 L 11.126953099999994 10.0083008 C 10.841796899999995 9.9667969 10.555663999999995 10.0595703 10.339843699999994 10.249511700000001 C 10.1240234 10.4389648 10 10.7124023 10 11 L 10 74 C 10 74.2875977 10.1240234 74.5610352 10.3398438 74.7504883 C 10.554687600000001 74.9394531 10.8408204 75.0297852 11.1269532 74.9916992 L 64.35058599999999 68.168457 L 75.61621099999999 89.4677734 C 75.7929688 89.8022461 76.1376953 90 76.5 90 C 76.6035156 90 76.7089844 89.9838867 76.8125 89.949707 C 77.2753906 89.7973632 77.5615234 89.3334961 77.4892578 88.8510742 L 74.1884766 66.9067383 L 89.1269532 64.9916992 C 89.6259766 64.9277344 90 64.5029297 90 64 L 90 21 C 90 20.4970703 89.6259766 20.0722656 89.1269531 20.0083008 z M 88 63.1201172 L 72.9208984 65.0532227 C 72.6542968 65.0874024 72.4121093 65.2275391 72.25 65.44189460000001 C 72.0878906 65.65673840000001 72.0185547 65.9277344 72.0585938 66.1938477 L 74.6376954 83.34033210000001 L 65.7939454 66.62060550000001 C 65.6191407 66.29052740000002 65.2773438 66.08837890000001 64.9101563 66.08837890000001 C 64.8681641 66.08837890000001 64.8251954 66.0908203 64.7832032 66.09667970000001 L 12 72.8637695 L 12 12.1362305 L 88 21.8798828 L 88 63.1201172 z" fill="#fffd0a" />
</svg>

